<?xml version="1.0" encoding="utf-8"?>
<!-- Generator: Adobe Illustrator 16.0.0, SVG Export Plug-In . SVG Version: 6.00 Build 0)  -->
<!DOCTYPE svg PUBLIC "-//W3C//DTD SVG 1.1//EN" "http://www.w3.org/Graphics/SVG/1.1/DTD/svg11.dtd">
<svg version="1.1" id="Layer_1" xmlns="http://www.w3.org/2000/svg" xmlns:xlink="http://www.w3.org/1999/xlink" x="0px" y="0px"
	 width="587.971px" height="203.99px" viewBox="0 0 587.971 203.99" enable-background="new 0 0 587.971 203.99"
	 xml:space="preserve">
<g>
	<path fill="#9055A2" d="M567.361,128.206H26.567V31.654h540.794V128.206z M33.567,123.872h526.794V35.987H33.567V123.872z"/>
</g>
<g>
	<path fill="#9055A2" d="M141.846,71.466c-1.089-1.105-2.376-1.955-3.861-2.549c-1.485-0.594-3.102-0.891-4.85-0.891
		c-1.75,0-3.358,0.297-4.826,0.891c-1.469,0.594-2.755,1.444-3.86,2.549c-1.106,1.105-1.964,2.393-2.574,3.86
		c-0.611,1.468-0.916,3.093-0.916,4.875c0,1.75,0.305,3.366,0.916,4.851c0.61,1.484,1.46,2.78,2.549,3.885
		c1.089,1.105,2.375,1.955,3.86,2.549c1.486,0.595,3.102,0.891,4.851,0.891c1.749,0,3.365-0.297,4.85-0.891
		c1.485-0.594,2.772-1.443,3.861-2.549c1.089-1.106,1.938-2.392,2.549-3.861c0.61-1.468,0.916-3.093,0.916-4.875
		c0-1.782-0.306-3.407-0.916-4.875C143.784,73.858,142.935,72.571,141.846,71.466z"/>
	<path fill="#9055A2" d="M41.794,41.504v77.276h255.169V41.504H41.794z M56.891,85.101c0.61,1.485,1.468,2.771,2.574,3.86
		c1.105,1.089,2.408,1.93,3.91,2.524c1.501,0.594,3.159,0.891,4.974,0.891c1.814,0,3.497-0.338,5.048-1.015
		c1.551-0.676,2.953-1.708,4.207-3.093l4.157,3.959c-1.617,1.881-3.597,3.316-5.939,4.306c-2.344,0.992-4.95,1.487-7.821,1.487
		c-2.64,0-5.09-0.438-7.35-1.312c-2.26-0.874-4.224-2.111-5.89-3.712c-1.667-1.6-2.962-3.489-3.885-5.667
		c-0.924-2.178-1.386-4.553-1.386-7.127c0-2.574,0.461-4.949,1.386-7.127c0.923-2.178,2.227-4.066,3.91-5.667
		c1.683-1.6,3.646-2.837,5.89-3.712c2.244-0.874,4.702-1.312,7.375-1.312c2.837,0,5.427,0.487,7.771,1.46
		c2.342,0.974,4.322,2.417,5.939,4.331l-4.157,3.91c-1.254-1.353-2.656-2.367-4.207-3.044c-1.551-0.676-3.234-1.015-5.048-1.015
		c-1.815,0-3.473,0.297-4.974,0.891c-1.502,0.594-2.805,1.436-3.91,2.524c-1.106,1.089-1.964,2.375-2.574,3.86
		c-0.611,1.485-0.916,3.118-0.916,4.9C55.975,81.983,56.28,83.616,56.891,85.101z M112.496,97.524l-24.549,0.001V62.879h6.434V92.08
		h18.115V97.524z M150.409,87.329c-0.924,2.178-2.227,4.059-3.91,5.643c-1.683,1.583-3.655,2.821-5.915,3.712
		c-2.261,0.89-4.727,1.336-7.399,1.336c-2.706,0-5.197-0.446-7.474-1.336c-2.276-0.891-4.256-2.136-5.939-3.737
		c-1.683-1.6-2.987-3.481-3.91-5.642c-0.924-2.161-1.386-4.529-1.386-7.103c0-2.574,0.461-4.941,1.386-7.103
		c0.923-2.161,2.227-4.041,3.91-5.642c1.683-1.6,3.663-2.846,5.939-3.737c2.277-0.891,4.751-1.336,7.424-1.336
		c2.705,0,5.188,0.446,7.449,1.336c2.26,0.891,4.231,2.137,5.915,3.737c1.683,1.601,2.986,3.481,3.91,5.642
		c0.923,2.162,1.386,4.529,1.386,7.103C151.795,82.776,151.333,85.151,150.409,87.329z M183.073,68.324h-11.482v29.201h-6.434
		V68.324h-11.483V62.88h29.399V68.324z M218.709,97.525h-6.434V82.677h-17.917v14.848h-6.434V62.879h6.434v14.304h17.917V62.879
		h6.434V97.525z M253.997,97.525h-25.984V62.879h25.291v5.395h-18.857v9.008h16.729v5.295h-16.73v9.553h19.55V97.525z
		 M284.413,92.847c-1.007,1.568-2.549,2.821-4.627,3.762c-2.081,0.941-4.704,1.411-7.872,1.411c-2.706,0-5.296-0.388-7.771-1.163
		s-4.438-1.773-5.89-2.995l2.227-4.999c1.386,1.089,3.101,1.997,5.147,2.722c2.045,0.727,4.14,1.089,6.286,1.089
		c1.814,0,3.283-0.198,4.405-0.594s1.946-0.932,2.475-1.608c0.527-0.676,0.792-1.443,0.792-2.302c0-1.055-0.38-1.905-1.139-2.549
		c-0.759-0.643-1.74-1.154-2.944-1.534c-1.205-0.379-2.542-0.734-4.009-1.064c-1.468-0.33-2.937-0.718-4.405-1.163
		c-1.469-0.446-2.805-1.022-4.009-1.732c-1.205-0.709-2.187-1.658-2.945-2.846c-0.759-1.188-1.138-2.705-1.138-4.554
		c0-1.881,0.503-3.604,1.51-5.172c1.006-1.567,2.54-2.821,4.603-3.762c2.062-0.94,4.677-1.411,7.845-1.411
		c2.079,0,4.141,0.265,6.187,0.792c2.045,0.528,3.827,1.287,5.345,2.277l-2.028,4.999c-1.552-0.923-3.151-1.609-4.801-2.054
		c-1.65-0.445-3.234-0.668-4.751-0.668c-1.782,0-3.226,0.215-4.331,0.643c-1.106,0.429-1.914,0.99-2.425,1.683
		c-0.512,0.693-0.767,1.485-0.767,2.375c0,1.057,0.371,1.906,1.114,2.549c0.742,0.644,1.715,1.147,2.92,1.51
		c1.204,0.363,2.549,0.718,4.034,1.064c1.485,0.347,2.961,0.735,4.43,1.163c1.468,0.429,2.804,0.99,4.009,1.683
		c1.204,0.693,2.178,1.633,2.92,2.821c0.742,1.188,1.113,2.69,1.113,4.504C285.923,89.572,285.42,91.28,284.413,92.847z"/>
</g>
<g>
	<path fill="#9055A2" d="M323.9,103.787c-3.559,0-6.992-0.405-10.308-1.213c-3.313-0.808-6.043-1.858-8.185-3.152l4.605-10.427
		c2.021,1.172,4.274,2.112,6.762,2.819c2.483,0.708,4.898,1.061,7.242,1.061c1.374,0,2.456-0.091,3.244-0.273
		s1.363-0.444,1.729-0.788c0.362-0.343,0.546-0.758,0.546-1.243c0-0.767-0.425-1.374-1.273-1.819
		c-0.849-0.444-1.971-0.818-3.362-1.122c-1.396-0.303-2.923-0.626-4.577-0.97c-1.658-0.343-3.325-0.798-5.002-1.364
		c-1.68-0.565-3.213-1.313-4.607-2.243c-1.395-0.929-2.516-2.152-3.364-3.667c-0.85-1.516-1.271-3.405-1.271-5.668
		c0-2.627,0.735-5.021,2.213-7.184c1.475-2.162,3.677-3.89,6.605-5.184c2.933-1.293,6.578-1.94,10.943-1.94
		c2.869,0,5.698,0.303,8.487,0.91c2.789,0.606,5.294,1.536,7.518,2.789l-4.305,10.367c-2.104-1.05-4.133-1.838-6.093-2.364
		c-1.961-0.525-3.87-0.788-5.729-0.788c-1.375,0-2.466,0.121-3.272,0.364c-0.811,0.242-1.387,0.566-1.729,0.97
		c-0.344,0.405-0.516,0.849-0.516,1.334c0,0.728,0.425,1.303,1.271,1.728c0.85,0.425,1.973,0.779,3.364,1.063
		c1.396,0.283,2.931,0.586,4.608,0.91c1.676,0.324,3.344,0.768,5.001,1.333c1.655,0.566,3.183,1.314,4.577,2.243
		c1.395,0.93,2.516,2.143,3.362,3.637c0.852,1.496,1.273,3.355,1.273,5.578c0,2.587-0.737,4.962-2.213,7.124
		c-1.478,2.163-3.668,3.901-6.577,5.213C331.963,103.129,328.305,103.787,323.9,103.787z"/>
	<path fill="#9055A2" d="M356.517,102.817V71.474h-12.429V60.38h39.164v11.094h-12.429v31.343H356.517z"/>
	<path fill="#9055A2" d="M406.653,103.787c-6.51,0-11.579-1.758-15.219-5.274c-3.638-3.516-5.454-8.447-5.454-14.792V60.38h14.308
		v22.916c0,3.234,0.585,5.527,1.758,6.881c1.172,1.354,2.748,2.031,4.729,2.031c2.021,0,3.605-0.676,4.76-2.031
		c1.15-1.354,1.728-3.646,1.728-6.881V60.38h14.064v23.34c0,6.346-1.818,11.276-5.456,14.792
		C418.233,102.028,413.16,103.787,406.653,103.787z"/>
	<path fill="#9055A2" d="M433.874,102.817V60.38h20.915c4.729,0,8.891,0.859,12.488,2.577c3.597,1.718,6.403,4.152,8.427,7.305
		c2.021,3.152,3.031,6.911,3.031,11.276c0,4.406-1.013,8.195-3.031,11.367c-2.021,3.173-4.83,5.618-8.427,7.335
		c-3.6,1.718-7.762,2.577-12.488,2.577H433.874z M448.18,91.662h6.002c2.021,0,3.789-0.384,5.307-1.152
		c1.516-0.768,2.696-1.91,3.547-3.425c0.849-1.515,1.271-3.365,1.271-5.547c0-2.142-0.424-3.96-1.271-5.456
		c-0.851-1.495-2.031-2.627-3.547-3.395c-1.518-0.767-3.284-1.152-5.307-1.152h-6.002V91.662z"/>
	<path fill="#9055A2" d="M483.948,102.817V60.38h14.307v42.438H483.948L483.948,102.817z"/>
	<path fill="#9055A2" d="M527.476,103.787c-3.477,0-6.68-0.546-9.607-1.637c-2.933-1.091-5.467-2.637-7.608-4.638
		c-2.143-2-3.81-4.354-5.001-7.063c-1.191-2.708-1.789-5.658-1.789-8.852c0-3.233,0.598-6.193,1.789-8.881s2.858-5.032,5.001-7.032
		c2.144-2.001,4.68-3.547,7.608-4.638c2.93-1.091,6.113-1.637,9.549-1.637c3.476,0,6.668,0.546,9.578,1.637
		c2.91,1.091,5.436,2.637,7.578,4.638c2.142,2,3.809,4.345,5.002,7.032c1.189,2.688,1.788,5.648,1.788,8.881
		c0,3.193-0.599,6.144-1.788,8.852c-1.193,2.708-2.86,5.062-5.002,7.063c-2.145,2-4.668,3.546-7.578,4.638
		C534.084,103.242,530.911,103.787,527.476,103.787z M527.416,92.208c1.333,0,2.576-0.242,3.729-0.728
		c1.151-0.485,2.161-1.182,3.031-2.091c0.868-0.91,1.546-2.021,2.03-3.334c0.485-1.313,0.728-2.798,0.728-4.456
		c0-1.657-0.24-3.142-0.728-4.456c-0.484-1.313-1.162-2.425-2.03-3.334c-0.87-0.909-1.88-1.606-3.031-2.092
		c-1.15-0.485-2.396-0.727-3.729-0.727c-1.334,0-2.577,0.242-3.729,0.727c-1.152,0.485-2.163,1.183-3.031,2.092
		c-0.87,0.909-1.546,2.021-2.031,3.334c-0.484,1.313-0.729,2.799-0.729,4.456c0,1.658,0.242,3.143,0.729,4.456
		c0.485,1.314,1.161,2.425,2.031,3.334c0.868,0.909,1.879,1.606,3.031,2.091C524.838,91.965,526.082,92.208,527.416,92.208z"/>
</g>
<g>
	<path fill="#9055A2" d="M78.533,167.464h17.684v1.883H76.445v-28.654h19.158v1.884h-17.07V167.464z M78.287,153.874h15.514v1.842
		H78.287V153.874z"/>
	<path fill="#9055A2" d="M99.082,169.347l8.883-11.544l-0.041,0.982l-8.392-10.808h2.333l7.328,9.457h-0.86l7.287-9.457h2.292
		l-8.473,10.931l0.041-1.105l9.006,11.544h-2.415l-7.737-10.07l0.778,0.082l-7.696,9.988H99.082L99.082,169.347z"/>
	<path fill="#9055A2" d="M123.725,177.289v-29.31h1.965v7l-0.328,3.725l0.409,3.725v14.859L123.725,177.289L123.725,177.289z
		 M134.449,169.511c-1.883,0-3.582-0.436-5.096-1.31c-1.515-0.873-2.716-2.122-3.603-3.746s-1.33-3.556-1.33-5.792
		c0-2.237,0.443-4.168,1.33-5.792c0.887-1.623,2.088-2.872,3.603-3.746c1.515-0.873,3.213-1.31,5.096-1.31
		c2.02,0,3.828,0.457,5.424,1.371c1.596,0.914,2.851,2.188,3.766,3.828c0.914,1.637,1.372,3.521,1.372,5.647
		s-0.458,4.012-1.372,5.647c-0.915,1.64-2.169,2.914-3.766,3.828C138.277,169.054,136.469,169.511,134.449,169.511z
		 M134.327,167.669c1.637,0,3.111-0.375,4.421-1.126c1.31-0.75,2.34-1.808,3.091-3.172c0.75-1.364,1.125-2.933,1.125-4.708
		c0-1.801-0.375-3.377-1.125-4.729c-0.751-1.352-1.781-2.4-3.091-3.151c-1.31-0.75-2.784-1.126-4.421-1.126
		c-1.638,0-3.104,0.375-4.4,1.126c-1.297,0.751-2.32,1.801-3.07,3.151c-0.751,1.352-1.126,2.928-1.126,4.729
		c0,1.773,0.375,3.343,1.126,4.708c0.75,1.364,1.773,2.422,3.07,3.172C131.222,167.294,132.689,167.669,134.327,167.669z"/>
	<path fill="#9055A2" d="M160.034,169.511c-2.156,0-4.06-0.463-5.71-1.392c-1.652-0.927-2.948-2.21-3.889-3.849
		c-0.941-1.638-1.412-3.506-1.412-5.607c0-2.128,0.443-4.004,1.331-5.628c0.886-1.624,2.108-2.899,3.664-3.828
		c1.556-0.927,3.302-1.392,5.24-1.392s3.677,0.449,5.219,1.351s2.756,2.163,3.643,3.787c0.887,1.624,1.331,3.5,1.331,5.628
		c0,0.082-0.007,0.171-0.021,0.266c-0.014,0.096-0.021,0.198-0.021,0.308h-18.871v-1.597h17.766l-0.818,0.777
		c0.027-1.664-0.321-3.158-1.044-4.482c-0.724-1.321-1.699-2.358-2.927-3.109c-1.228-0.75-2.647-1.126-4.257-1.126
		c-1.583,0-2.996,0.375-4.237,1.126c-1.242,0.751-2.218,1.788-2.927,3.109c-0.71,1.324-1.064,2.832-1.064,4.523v0.369
		c0,1.747,0.389,3.295,1.167,4.646c0.778,1.351,1.849,2.4,3.213,3.15c1.364,0.751,2.92,1.126,4.667,1.126
		c1.365,0,2.641-0.246,3.828-0.735c1.187-0.492,2.19-1.242,3.009-2.252l1.187,1.352c-0.928,1.146-2.095,2.013-3.5,2.6
		C163.192,169.218,161.671,169.511,160.034,169.511z"/>
	<path fill="#9055A2" d="M184.267,169.511c-2.074,0-3.923-0.463-5.546-1.392c-1.624-0.927-2.907-2.21-3.848-3.849
		c-0.941-1.638-1.412-3.506-1.412-5.607c0-2.128,0.471-4.012,1.412-5.648c0.941-1.639,2.224-2.914,3.848-3.828
		c1.623-0.914,3.472-1.371,5.546-1.371c1.72,0,3.281,0.326,4.688,0.981c1.405,0.655,2.544,1.638,3.418,2.947l-1.515,1.104
		c-0.764-1.092-1.719-1.896-2.866-2.414c-1.146-0.52-2.388-0.778-3.725-0.778c-1.665,0-3.159,0.375-4.482,1.126
		c-1.324,0.751-2.36,1.801-3.111,3.152c-0.751,1.351-1.125,2.926-1.125,4.728c0,1.801,0.375,3.377,1.125,4.728
		c0.75,1.353,1.787,2.402,3.111,3.152c1.324,0.751,2.818,1.126,4.482,1.126c1.337,0,2.579-0.259,3.725-0.778
		c1.146-0.518,2.102-1.322,2.866-2.414l1.515,1.104c-0.874,1.31-2.013,2.292-3.418,2.946
		C187.548,169.185,185.986,169.511,184.267,169.511z"/>
	<path fill="#9055A2" d="M195.237,149.739v-1.76h12.771v1.76H195.237z M204.979,169.511c-1.883,0-3.323-0.518-4.319-1.555
		c-0.997-1.037-1.494-2.457-1.494-4.257v-20.386h2.047v20.181c0,1.364,0.341,2.415,1.023,3.151c0.682,0.736,1.664,1.104,2.947,1.104
		c1.336,0,2.442-0.396,3.315-1.188l0.86,1.435c-0.546,0.521-1.208,0.899-1.985,1.146S205.798,169.511,204.979,169.511z"/>
	<path fill="#9055A2" d="M252.177,147.815c1.719,0,3.213,0.334,4.482,1.002c1.269,0.67,2.258,1.679,2.968,3.029
		c0.709,1.352,1.064,3.022,1.064,5.016v12.484h-2.046v-12.32c0-2.401-0.587-4.23-1.76-5.485c-1.174-1.255-2.812-1.883-4.913-1.883
		c-1.61,0-3.002,0.342-4.175,1.022c-1.174,0.684-2.074,1.637-2.702,2.865c-0.628,1.229-0.941,2.702-0.941,4.421v11.382h-2.047
		v-12.322c0-2.4-0.587-4.229-1.76-5.484c-1.174-1.255-2.811-1.883-4.912-1.883c-1.611,0-3.002,0.342-4.175,1.023
		c-1.174,0.683-2.074,1.637-2.702,2.864s-0.942,2.702-0.942,4.421v11.381h-2.046v-21.367h1.965v5.895l-0.287-0.654
		c0.627-1.666,1.678-2.98,3.152-3.951c1.474-0.967,3.248-1.453,5.322-1.453c2.128,0,3.923,0.539,5.383,1.617
		c1.459,1.08,2.381,2.683,2.763,4.812l-0.696-0.287c0.573-1.828,1.651-3.31,3.234-4.44
		C247.988,148.382,249.912,147.815,252.177,147.815z"/>
	<path fill="#9055A2" d="M277.475,169.511c-2.047,0-3.868-0.463-5.465-1.392c-1.597-0.927-2.866-2.21-3.807-3.849
		c-0.941-1.638-1.412-3.506-1.412-5.607c0-2.128,0.471-4.004,1.412-5.628s2.21-2.899,3.807-3.828
		c1.597-0.927,3.418-1.392,5.465-1.392c2.046,0,3.875,0.463,5.485,1.392c1.61,0.928,2.879,2.204,3.808,3.828
		c0.927,1.624,1.392,3.5,1.392,5.628c0,2.102-0.465,3.971-1.392,5.607c-0.929,1.639-2.197,2.922-3.808,3.849
		C281.349,169.047,279.521,169.511,277.475,169.511z M277.475,167.669c1.637,0,3.111-0.375,4.421-1.126
		c1.31-0.75,2.333-1.808,3.069-3.172c0.737-1.364,1.105-2.933,1.105-4.708c0-1.801-0.368-3.377-1.105-4.729
		c-0.736-1.352-1.76-2.4-3.069-3.151c-1.311-0.75-2.784-1.126-4.421-1.126c-1.637,0-3.104,0.375-4.4,1.126
		c-1.297,0.751-2.32,1.801-3.07,3.151c-0.751,1.352-1.125,2.928-1.125,4.729c0,1.773,0.375,3.343,1.125,4.708
		c0.75,1.364,1.773,2.422,3.07,3.172C274.37,167.294,275.837,167.669,277.475,167.669z"/>
	<path fill="#9055A2" d="M294.503,169.347v-21.367h1.965v5.854l-0.203-0.655c0.601-1.719,1.608-3.042,3.028-3.971
		c1.418-0.927,3.192-1.393,5.321-1.393v2.007c-0.082,0-0.164-0.009-0.246-0.021c-0.081-0.014-0.163-0.021-0.245-0.021
		c-2.374,0-4.229,0.742-5.567,2.229c-1.336,1.488-2.006,3.556-2.006,6.202v11.135H294.503L294.503,169.347z"/>
	<path fill="#9055A2" d="M318.738,169.511c-2.156,0-4.062-0.463-5.711-1.392c-1.651-0.927-2.947-2.21-3.891-3.849
		c-0.939-1.638-1.412-3.506-1.412-5.607c0-2.128,0.443-4.004,1.33-5.628c0.889-1.624,2.108-2.899,3.664-3.828
		c1.558-0.927,3.304-1.392,5.239-1.392c1.938,0,3.678,0.449,5.22,1.351c1.541,0.901,2.756,2.163,3.646,3.787
		c0.886,1.624,1.33,3.5,1.33,5.628c0,0.082-0.007,0.171-0.021,0.266c-0.014,0.096-0.021,0.198-0.021,0.308H309.24v-1.597h17.766
		l-0.816,0.777c0.024-1.664-0.321-3.158-1.046-4.482c-0.724-1.321-1.697-2.358-2.927-3.109c-1.229-0.75-2.646-1.126-4.258-1.126
		c-1.583,0-2.995,0.375-4.236,1.126c-1.24,0.751-2.218,1.788-2.927,3.109c-0.71,1.324-1.063,2.832-1.063,4.523v0.369
		c0,1.747,0.389,3.295,1.167,4.646c0.775,1.351,1.848,2.4,3.213,3.15c1.362,0.751,2.92,1.126,4.667,1.126
		c1.362,0,2.64-0.246,3.827-0.735c1.187-0.492,2.188-1.242,3.009-2.252l1.188,1.352c-0.929,1.146-2.095,2.013-3.5,2.6
		C321.896,169.218,320.375,169.511,318.738,169.511z"/>
	<path fill="#9055A2" d="M332.532,175.201l1.597-6.918l0.205,1.188c-0.52,0-0.949-0.164-1.29-0.492
		c-0.342-0.328-0.512-0.737-0.512-1.229s0.17-0.899,0.512-1.229c0.341-0.326,0.743-0.489,1.208-0.489
		c0.518,0,0.935,0.171,1.248,0.512c0.313,0.342,0.471,0.744,0.471,1.208c0,0.189-0.014,0.383-0.041,0.573
		c-0.025,0.19-0.066,0.382-0.122,0.571c-0.056,0.191-0.123,0.438-0.205,0.737l-1.597,5.567L332.532,175.201L332.532,175.201z"/>
	<path fill="#9055A2" d="M353.859,169.347v-28.654h10.272c2.401,0,4.462,0.384,6.184,1.146c1.719,0.766,3.043,1.862,3.971,3.295
		c0.928,1.434,1.392,3.174,1.392,5.221c0,1.992-0.464,3.711-1.392,5.156c-0.928,1.447-2.252,2.553-3.971,3.315
		c-1.722,0.765-3.78,1.146-6.184,1.146h-9.128l0.941-0.981v10.354h-2.087L353.859,169.347L353.859,169.347z M355.947,159.113
		l-0.941-1.023h9.128c3.084,0,5.424-0.675,7.021-2.026c1.597-1.351,2.395-3.254,2.395-5.709c0-2.482-0.798-4.399-2.395-5.752
		c-1.599-1.351-3.938-2.024-7.021-2.024h-9.128l0.941-1.022V159.113z"/>
	<path fill="#9055A2" d="M387.63,169.511c-1.583,0-2.955-0.252-4.114-0.757c-1.158-0.504-2.047-1.221-2.659-2.149
		c-0.613-0.927-0.923-1.992-0.923-3.191c0-1.091,0.252-2.081,0.76-2.969c0.504-0.887,1.344-1.609,2.518-2.17
		c1.173-0.559,2.742-0.838,4.707-0.838h7.859v1.597h-7.818c-2.211,0-3.76,0.409-4.646,1.229c-0.889,0.818-1.33,1.843-1.33,3.07
		c0,1.365,0.519,2.456,1.556,3.274s2.497,1.229,4.38,1.229c1.801,0,3.322-0.409,4.564-1.229c1.239-0.818,2.161-2.006,2.763-3.563
		l0.573,1.393c-0.573,1.557-1.55,2.791-2.929,3.705C391.512,169.054,389.758,169.511,387.63,169.511z M395.326,169.347v-4.871
		l-0.082-0.735v-8.023c0-1.991-0.539-3.506-1.616-4.544c-1.079-1.037-2.654-1.556-4.729-1.556c-1.476,0-2.847,0.253-4.114,0.757
		c-1.271,0.505-2.354,1.152-3.254,1.943l-1.023-1.475c1.064-0.955,2.347-1.699,3.848-2.229c1.503-0.532,3.07-0.8,4.71-0.8
		c2.646,0,4.68,0.67,6.1,2.006c1.418,1.339,2.128,3.33,2.128,5.978v13.552h-1.967V169.347z"/>
	<path fill="#9055A2" d="M404.823,177.452c-0.982,0-1.903-0.164-2.765-0.491c-0.857-0.327-1.59-0.805-2.188-1.433l1.021-1.557
		c0.548,0.572,1.142,0.995,1.781,1.27c0.643,0.271,1.371,0.41,2.189,0.41c0.98,0,1.849-0.273,2.6-0.819
		c0.75-0.546,1.453-1.542,2.108-2.988l1.474-3.274l0.286-0.367l9.047-20.223h2.088l-10.971,24.273
		c-0.573,1.311-1.194,2.34-1.862,3.091c-0.67,0.75-1.397,1.29-2.188,1.617C406.651,177.289,405.778,177.452,404.823,177.452z
		 M411.004,169.879l-9.906-21.899h2.169l9.008,20.1L411.004,169.879z"/>
	<path fill="#9055A2" d="M438.103,169.347v-28.654h2.09v26.771h16.497v1.883H438.103z"/>
	<path fill="#9055A2" d="M469.705,169.511c-2.156,0-4.062-0.463-5.711-1.392c-1.651-0.927-2.947-2.21-3.889-3.849
		c-0.941-1.638-1.412-3.506-1.412-5.607c0-2.128,0.441-4.004,1.33-5.628c0.887-1.624,2.106-2.899,3.662-3.828
		c1.558-0.927,3.304-1.392,5.239-1.392c1.938,0,3.678,0.449,5.222,1.351c1.539,0.901,2.756,2.163,3.644,3.787
		c0.886,1.624,1.33,3.5,1.33,5.628c0,0.082-0.007,0.171-0.021,0.266c-0.014,0.096-0.021,0.198-0.021,0.308h-18.871v-1.597h17.766
		l-0.816,0.777c0.024-1.664-0.321-3.158-1.044-4.482c-0.726-1.321-1.699-2.358-2.929-3.109c-1.229-0.75-2.646-1.126-4.258-1.126
		c-1.583,0-2.995,0.375-4.234,1.126c-1.242,0.751-2.22,1.788-2.929,3.109c-0.71,1.324-1.063,2.832-1.063,4.523v0.369
		c0,1.747,0.389,3.295,1.167,4.646c0.775,1.351,1.848,2.4,3.213,3.15c1.364,0.751,2.92,1.126,4.667,1.126
		c1.364,0,2.64-0.246,3.827-0.735c1.187-0.492,2.188-1.242,3.009-2.252l1.188,1.352c-0.93,1.146-2.096,2.013-3.5,2.6
		C472.863,169.218,471.342,169.511,469.705,169.511z"/>
	<path fill="#9055A2" d="M490.868,169.511c-1.773,0-3.434-0.259-4.976-0.777c-1.542-0.518-2.734-1.174-3.579-1.965l0.939-1.638
		c0.818,0.71,1.909,1.317,3.274,1.822c1.362,0.505,2.838,0.757,4.421,0.757c2.235,0,3.849-0.369,4.831-1.105
		c0.98-0.734,1.474-1.705,1.474-2.904c0-0.873-0.253-1.563-0.758-2.067c-0.505-0.504-1.181-0.894-2.026-1.167
		c-0.846-0.271-1.772-0.498-2.782-0.676c-1.011-0.177-2.021-0.375-3.028-0.593c-1.01-0.22-1.938-0.532-2.784-0.941
		s-1.521-0.976-2.025-1.698c-0.506-0.724-0.758-1.686-0.758-2.887c0-1.091,0.3-2.072,0.9-2.945c0.6-0.873,1.501-1.576,2.702-2.108
		c1.198-0.532,2.699-0.798,4.503-0.798c1.337,0,2.681,0.189,4.031,0.572c1.352,0.383,2.447,0.887,3.296,1.516l-0.941,1.638
		c-0.9-0.683-1.91-1.173-3.029-1.474s-2.251-0.451-3.396-0.451c-2.074,0-3.598,0.383-4.564,1.146
		c-0.969,0.764-1.453,1.719-1.453,2.863c0,0.901,0.252,1.617,0.759,2.149c0.505,0.53,1.181,0.939,2.024,1.228
		c0.846,0.286,1.774,0.52,2.784,0.696c1.009,0.178,2.019,0.375,3.029,0.593c1.009,0.221,1.938,0.526,2.781,0.921
		c0.848,0.396,1.521,0.941,2.026,1.638c0.505,0.695,0.757,1.631,0.757,2.805s-0.318,2.197-0.962,3.07
		c-0.642,0.873-1.59,1.555-2.845,2.045C494.238,169.265,492.696,169.511,490.868,169.511z"/>
	<path fill="#9055A2" d="M510.434,169.511c-1.771,0-3.432-0.259-4.974-0.777c-1.542-0.518-2.736-1.174-3.581-1.965l0.941-1.638
		c0.816,0.71,1.907,1.317,3.272,1.822c1.364,0.505,2.838,0.757,4.421,0.757c2.237,0,3.851-0.369,4.831-1.105
		c0.982-0.734,1.476-1.705,1.476-2.904c0-0.873-0.253-1.563-0.758-2.067c-0.507-0.504-1.183-0.894-2.026-1.167
		c-0.846-0.271-1.774-0.498-2.783-0.676c-1.01-0.177-2.021-0.375-3.029-0.593c-1.01-0.22-1.938-0.532-2.782-0.941
		c-0.848-0.409-1.521-0.976-2.025-1.698c-0.506-0.724-0.758-1.686-0.758-2.887c0-1.091,0.3-2.072,0.898-2.945
		c0.603-0.873,1.501-1.576,2.702-2.108c1.2-0.532,2.701-0.798,4.503-0.798c1.337,0,2.683,0.189,4.032,0.572
		c1.351,0.383,2.448,0.887,3.295,1.516l-0.939,1.638c-0.9-0.683-1.91-1.173-3.029-1.474s-2.251-0.451-3.397-0.451
		c-2.072,0-3.596,0.383-4.563,1.146c-0.969,0.764-1.453,1.719-1.453,2.863c0,0.901,0.252,1.617,0.757,2.149
		c0.505,0.53,1.181,0.939,2.026,1.228c0.846,0.286,1.772,0.52,2.784,0.696c1.009,0.178,2.019,0.375,3.027,0.593
		c1.009,0.221,1.938,0.526,2.783,0.921c0.846,0.396,1.521,0.941,2.026,1.638c0.505,0.695,0.757,1.631,0.757,2.805
		s-0.32,2.197-0.962,3.07c-0.644,0.873-1.59,1.555-2.845,2.045C513.804,169.265,512.262,169.511,510.434,169.511z"/>
</g>
</svg>
